<?xml version="1.0" standalone="no"?>
<!DOCTYPE svg PUBLIC "-//W3C//DTD SVG 20010904//EN"
 "http://www.w3.org/TR/2001/REC-SVG-20010904/DTD/svg10.dtd">
<svg version="1.0" xmlns="http://www.w3.org/2000/svg"
 width="200.000000pt" height="200.000000pt" viewBox="0 0 200.000000 200.000000"
 preserveAspectRatio="xMidYMid meet">
<metadata>
Created by potrace 1.14, written by Peter Selinger 2001-2017
</metadata>
<g transform="translate(0.000000,200.000000) scale(0.100000,-0.100000)"
fill="#000000" stroke="none">
<path d="M0 1000 l0 -1000 1000 0 1000 0 0 1000 0 1000 -1000 0 -1000 0 0
-1000z m1153 488 c2 -7 1 -21 -2 -31 -6 -16 -10 -14 -36 13 l-29 30 31 0 c17
0 33 -6 36 -12z m-683 -19 c0 -11 60 -69 72 -69 5 0 26 9 47 19 26 14 70 22
141 27 l103 7 -49 -52 c-27 -28 -66 -79 -86 -114 -54 -90 -67 -106 -102 -128
-39 -24 -115 -25 -162 -3 -65 31 -104 119 -84 192 17 63 120 167 120 121z
m700 -197 c107 -56 164 -148 164 -267 1 -118 -60 -216 -169 -273 -69 -36 -176
-37 -252 -3 -106 47 -176 156 -175 271 0 124 56 215 165 270 57 29 69 31 142
28 60 -2 91 -9 125 -26z m-597 -416 c52 -19 68 -35 113 -117 21 -40 57 -92 79
-118 21 -25 30 -39 20 -31 -11 9 -37 25 -57 35 -20 10 -35 22 -32 26 2 4 -5 5
-16 2 -11 -3 -20 0 -20 6 0 6 -3 10 -7 9 -5 -1 -28 10 -52 26 -41 26 -48 27
-147 24 -100 -3 -104 -2 -104 18 0 35 42 88 90 112 50 25 79 27 133 8z"/>
<path d="M726 1428 c3 -5 10 -6 15 -3 13 9 11 12 -6 12 -8 0 -12 -4 -9 -9z"/>
</g>
</svg>
